<svg width="400" height="400" viewBox="0 0 400 400" fill="none" xmlns="http://www.w3.org/2000/svg">
<path fill-rule="evenodd" clip-rule="evenodd" d="M200 253C223.748 253 243 233.748 243 210C243 186.252 223.748 167 200 167C176.252 167 157 186.252 157 210C157 233.748 176.252 253 200 253ZM188.091 236.727C191.727 238.015 195.894 238.659 200.591 238.659C202.348 238.659 204.129 238.523 205.932 238.25C207.75 237.977 209.432 237.629 210.977 237.205C212.538 236.78 213.788 236.348 214.727 235.909L213.136 230.932C212.5 231.159 211.538 231.455 210.25 231.818C208.977 232.197 207.523 232.53 205.886 232.818C204.25 233.121 202.583 233.273 200.886 233.273C197.068 233.273 193.697 232.75 190.773 231.705C187.848 230.674 185.394 229.159 183.409 227.159C181.424 225.159 179.924 222.705 178.909 219.795C177.894 216.871 177.386 213.523 177.386 209.75C177.386 206.129 177.879 202.864 178.864 199.955C179.864 197.03 181.326 194.523 183.25 192.432C185.189 190.341 187.568 188.742 190.386 187.636C193.205 186.515 196.424 185.955 200.045 185.955C202.712 185.955 205.144 186.28 207.341 186.932C209.553 187.583 211.523 188.508 213.25 189.705C214.977 190.902 216.432 192.333 217.614 194C218.811 195.652 219.712 197.5 220.318 199.545C220.939 201.576 221.25 203.742 221.25 206.045C221.25 209.333 221.083 212.03 220.75 214.136C220.432 216.242 219.879 217.803 219.091 218.818C218.318 219.833 217.242 220.341 215.864 220.341C214.697 220.341 213.795 219.924 213.159 219.091C212.538 218.258 212.227 217.242 212.227 216.045V194.955H206.636V197.5H206.341C206.114 196.833 205.553 196.22 204.659 195.659C203.78 195.098 202.674 194.682 201.341 194.409C200.008 194.136 198.545 194.091 196.955 194.273C195.318 194.47 193.765 194.947 192.295 195.705C190.826 196.462 189.523 197.492 188.386 198.795C187.265 200.083 186.379 201.621 185.727 203.409C185.076 205.182 184.75 207.189 184.75 209.432C184.75 211.765 185.038 213.886 185.614 215.795C186.189 217.705 187.015 219.356 188.091 220.75C189.182 222.144 190.492 223.235 192.023 224.023C193.553 224.811 195.273 225.242 197.182 225.318C198.909 225.394 200.424 225.212 201.727 224.773C203.045 224.318 204.129 223.712 204.977 222.955C205.826 222.182 206.432 221.348 206.795 220.455H207.068C207.25 221.667 207.765 222.667 208.614 223.455C209.462 224.227 210.492 224.788 211.705 225.136C212.917 225.485 214.167 225.636 215.455 225.591C217.879 225.545 219.848 224.977 221.364 223.886C222.894 222.78 224.061 221.311 224.864 219.477C225.682 217.629 226.242 215.568 226.545 213.295C226.848 211.008 227 208.667 227 206.273C227 202.848 226.424 199.598 225.273 196.523C224.121 193.447 222.409 190.72 220.136 188.341C217.879 185.962 215.091 184.091 211.773 182.727C208.455 181.364 204.621 180.682 200.273 180.682C195.727 180.682 191.667 181.348 188.091 182.682C184.515 184.015 181.477 185.947 178.977 188.477C176.492 190.992 174.598 194.038 173.295 197.614C171.992 201.189 171.341 205.22 171.341 209.705C171.341 214.311 171.985 218.409 173.273 222C174.561 225.591 176.447 228.621 178.932 231.091C181.417 233.576 184.47 235.455 188.091 236.727ZM203.25 218.568C202.053 219.356 200.47 219.75 198.5 219.75C196.515 219.75 194.939 219.25 193.773 218.25C192.621 217.25 191.788 215.947 191.273 214.341C190.773 212.72 190.515 210.992 190.5 209.159C190.515 207.417 190.833 205.833 191.455 204.409C192.091 202.985 193.008 201.856 194.205 201.023C195.417 200.189 196.879 199.773 198.591 199.773C200.455 199.773 201.977 200.076 203.159 200.682C204.356 201.273 205.235 202.258 205.795 203.636C206.371 205 206.667 206.833 206.682 209.136C206.682 211.5 206.409 213.47 205.864 215.045C205.333 216.606 204.462 217.78 203.25 218.568Z" fill="#EA5252"/>
<path fill-rule="evenodd" clip-rule="evenodd" d="M200 393C306.591 393 393 306.591 393 200C393 93.409 306.591 7 200 7C93.409 7 7 93.409 7 200C7 306.591 93.409 393 200 393ZM200 400C310.457 400 400 310.457 400 200C400 89.5431 310.457 0 200 0C89.5431 0 0 89.5431 0 200C0 310.457 89.5431 400 200 400Z" fill="#EA5252"/>
<mask id="path-3-inside-1_5_65" fill="white">
<path fill-rule="evenodd" clip-rule="evenodd" d="M285 92H114C110.134 92 107 95.134 107 99V162.725C107 164.135 107.743 165.442 108.956 166.163L153.167 192.45C160.274 173.493 178.561 160 200 160C221.256 160 239.414 173.263 246.649 191.966L290.044 166.163C291.257 165.442 292 164.135 292 162.725V99C292 95.134 288.866 92 285 92ZM126 108.5C126 106.567 127.567 105 129.5 105H169.5C171.433 105 173 106.567 173 108.5C173 110.433 171.433 112 169.5 112H129.5C127.567 112 126 110.433 126 108.5ZM129.5 121.5C127.567 121.5 126 123.067 126 125C126 126.933 127.567 128.5 129.5 128.5H270.5C272.433 128.5 274 126.933 274 125C274 123.067 272.433 121.5 270.5 121.5H129.5ZM126 143C126 141.067 127.567 139.5 129.5 139.5H225.5C227.433 139.5 229 141.067 229 143C229 144.933 227.433 146.5 225.5 146.5H129.5C127.567 146.5 126 144.933 126 143ZM242.5 161C242.5 159.067 244.067 157.5 246 157.5H270.5C272.433 157.5 274 159.067 274 161C274 162.933 272.433 164.5 270.5 164.5H246C244.067 164.5 242.5 162.933 242.5 161Z"/>
</mask>
<path fill-rule="evenodd" clip-rule="evenodd" d="M285 92H114C110.134 92 107 95.134 107 99V162.725C107 164.135 107.743 165.442 108.956 166.163L153.167 192.45C160.274 173.493 178.561 160 200 160C221.256 160 239.414 173.263 246.649 191.966L290.044 166.163C291.257 165.442 292 164.135 292 162.725V99C292 95.134 288.866 92 285 92ZM126 108.5C126 106.567 127.567 105 129.5 105H169.5C171.433 105 173 106.567 173 108.5C173 110.433 171.433 112 169.5 112H129.5C127.567 112 126 110.433 126 108.5ZM129.5 121.5C127.567 121.5 126 123.067 126 125C126 126.933 127.567 128.5 129.5 128.5H270.5C272.433 128.5 274 126.933 274 125C274 123.067 272.433 121.5 270.5 121.5H129.5ZM126 143C126 141.067 127.567 139.5 129.5 139.5H225.5C227.433 139.5 229 141.067 229 143C229 144.933 227.433 146.5 225.5 146.5H129.5C127.567 146.5 126 144.933 126 143ZM242.5 161C242.5 159.067 244.067 157.5 246 157.5H270.5C272.433 157.5 274 159.067 274 161C274 162.933 272.433 164.5 270.5 164.5H246C244.067 164.5 242.5 162.933 242.5 161Z" fill="#EA5252"/>
<path d="M108.956 166.163L105.378 172.18L105.378 172.18L108.956 166.163ZM153.167 192.45L149.589 198.467L156.783 202.745L159.721 194.908L153.167 192.45ZM246.649 191.966L240.12 194.491L243.108 202.215L250.226 197.982L246.649 191.966ZM290.044 166.163L286.467 160.146L286.467 160.146L290.044 166.163ZM114 99H285V85H114V99ZM114 99V99V85C106.268 85 100 91.268 100 99H114ZM114 162.725V99H100V162.725H114ZM112.533 160.146C113.443 160.687 114 161.667 114 162.725H100C100 166.604 102.044 170.197 105.378 172.18L112.533 160.146ZM156.744 186.434L112.533 160.146L105.378 172.18L149.589 198.467L156.744 186.434ZM159.721 194.908C165.837 178.593 181.574 167 200 167V153C175.549 153 154.71 168.393 146.612 189.993L159.721 194.908ZM200 167C218.269 167 233.893 178.396 240.12 194.491L253.177 189.44C244.934 168.131 224.243 153 200 153V167ZM286.467 160.146L243.071 185.949L250.226 197.982L293.622 172.18L286.467 160.146ZM285 162.725C285 161.667 285.557 160.687 286.467 160.146L293.622 172.18C296.956 170.197 299 166.604 299 162.725H285ZM285 99V162.725H299V99H285ZM285 99H299C299 91.268 292.732 85 285 85V99ZM129.5 98C123.701 98 119 102.701 119 108.5H133C133 110.433 131.433 112 129.5 112V98ZM169.5 98H129.5V112H169.5V98ZM180 108.5C180 102.701 175.299 98 169.5 98V112C167.567 112 166 110.433 166 108.5H180ZM169.5 119C175.299 119 180 114.299 180 108.5H166C166 106.567 167.567 105 169.5 105V119ZM129.5 119H169.5V105H129.5V119ZM119 108.5C119 114.299 123.701 119 129.5 119V105C131.433 105 133 106.567 133 108.5H119ZM133 125C133 126.933 131.433 128.5 129.5 128.5V114.5C123.701 114.5 119 119.201 119 125H133ZM129.5 121.5C131.433 121.5 133 123.067 133 125H119C119 130.799 123.701 135.5 129.5 135.5V121.5ZM270.5 121.5H129.5V135.5H270.5V121.5ZM267 125C267 123.067 268.567 121.5 270.5 121.5V135.5C276.299 135.5 281 130.799 281 125H267ZM270.5 128.5C268.567 128.5 267 126.933 267 125H281C281 119.201 276.299 114.5 270.5 114.5V128.5ZM129.5 128.5H270.5V114.5H129.5V128.5ZM129.5 132.5C123.701 132.5 119 137.201 119 143H133C133 144.933 131.433 146.5 129.5 146.5V132.5ZM225.5 132.5H129.5V146.5H225.5V132.5ZM236 143C236 137.201 231.299 132.5 225.5 132.5V146.5C223.567 146.5 222 144.933 222 143H236ZM225.5 153.5C231.299 153.5 236 148.799 236 143H222C222 141.067 223.567 139.5 225.5 139.5V153.5ZM129.5 153.5H225.5V139.5H129.5V153.5ZM119 143C119 148.799 123.701 153.5 129.5 153.5V139.5C131.433 139.5 133 141.067 133 143H119ZM246 150.5C240.201 150.5 235.5 155.201 235.5 161H249.5C249.5 162.933 247.933 164.5 246 164.5V150.5ZM270.5 150.5H246V164.5H270.5V150.5ZM281 161C281 155.201 276.299 150.5 270.5 150.5V164.5C268.567 164.5 267 162.933 267 161H281ZM270.5 171.5C276.299 171.5 281 166.799 281 161H267C267 159.067 268.567 157.5 270.5 157.5V171.5ZM246 171.5H270.5V157.5H246V171.5ZM235.5 161C235.5 166.799 240.201 171.5 246 171.5V157.5C247.933 157.5 249.5 159.067 249.5 161H235.5Z" fill="#EA5252" mask="url(#path-3-inside-1_5_65)"/>
<mask id="path-5-inside-2_5_65" fill="white">
<path fill-rule="evenodd" clip-rule="evenodd" d="M237.6 242.96C245.32 234.16 250 222.626 250 210C250 205.698 249.457 201.523 248.435 197.539L307.065 162.361C311.731 159.561 317.667 162.922 317.667 168.363V285.701C317.667 288.033 315.123 289.474 313.123 288.274L237.6 242.96Z"/>
</mask>
<path fill-rule="evenodd" clip-rule="evenodd" d="M237.6 242.96C245.32 234.16 250 222.626 250 210C250 205.698 249.457 201.523 248.435 197.539L307.065 162.361C311.731 159.561 317.667 162.922 317.667 168.363V285.701C317.667 288.033 315.123 289.474 313.123 288.274L237.6 242.96Z" fill="#EA5252"/>
<path d="M237.6 242.96L232.337 238.343L226.807 244.647L233.998 248.962L237.6 242.96ZM248.435 197.539L244.833 191.537L240.357 194.222L241.654 199.278L248.435 197.539ZM307.065 162.361L303.464 156.358L303.464 156.358L307.065 162.361ZM313.123 288.274L309.522 294.276L309.522 294.276L313.123 288.274ZM243 210C243 220.864 238.98 230.771 232.337 238.343L242.862 247.576C251.659 237.548 257 224.389 257 210H243ZM241.654 199.278C242.532 202.698 243 206.289 243 210H257C257 205.106 256.382 200.347 255.215 195.8L241.654 199.278ZM303.464 156.358L244.833 191.537L252.036 203.542L310.667 168.363L303.464 156.358ZM324.667 168.363C324.667 157.481 312.795 150.76 303.464 156.358L310.667 168.363C310.685 168.352 310.696 168.348 310.699 168.346C310.702 168.345 310.701 168.346 310.695 168.347C310.69 168.349 310.683 168.35 310.675 168.351C310.667 168.352 310.659 168.353 310.653 168.353C310.64 168.352 310.636 168.351 310.64 168.352C310.642 168.352 310.646 168.354 310.651 168.356C310.656 168.358 310.661 168.36 310.667 168.363C310.672 168.366 310.677 168.37 310.681 168.373C310.686 168.376 310.689 168.379 310.69 168.38C310.693 168.383 310.69 168.38 310.683 168.37C310.68 168.364 310.676 168.358 310.673 168.35C310.67 168.343 310.667 168.336 310.666 168.33C310.664 168.325 310.664 168.323 310.665 168.327C310.665 168.33 310.667 168.342 310.667 168.363H324.667ZM324.667 285.701V168.363H310.667V285.701H324.667ZM309.522 294.276C316.187 298.275 324.667 293.474 324.667 285.701H310.667C310.667 282.592 314.059 280.672 316.725 282.271L309.522 294.276ZM233.998 248.962L309.522 294.276L316.725 282.271L241.201 236.957L233.998 248.962Z" fill="#EA5252" mask="url(#path-5-inside-2_5_65)"/>
<path fill-rule="evenodd" clip-rule="evenodd" d="M227.896 251.501L303.728 297H86L86 166.363L150.255 204.916C150.51 202.397 150.951 199.934 151.565 197.539L89.6015 160.361C84.9358 157.561 79 160.922 79 166.363V297C79 300.866 82.134 304 86 304H314.559C318.616 304 320.095 298.657 316.617 296.57L233.777 246.866C231.938 248.552 229.972 250.102 227.896 251.501Z" fill="#EA5252"/>
</svg>
