<svg width="500" height="500" viewBox="0 0 500 500" fill="none" xmlns="http://www.w3.org/2000/svg">
<circle cx="250" cy="250" r="246.5" stroke="#EA5252" stroke-width="7"/>
<path d="M260.382 369.032C241.447 369.032 224.651 366.436 209.991 361.244C195.393 356.114 183.086 348.54 173.069 338.523C163.052 328.567 155.447 316.351 150.256 301.875C145.064 287.399 142.468 270.877 142.468 252.309C142.468 234.229 145.094 217.982 150.347 203.567C155.6 189.153 163.235 176.876 173.252 166.737C183.33 156.536 195.577 148.749 209.991 143.374C224.406 137.999 240.776 135.311 259.099 135.311C276.629 135.311 292.082 138.06 305.459 143.557C318.835 149.054 330.074 156.597 339.175 166.187C348.337 175.776 355.239 186.771 359.881 199.17C364.523 211.569 366.844 224.67 366.844 238.474C366.844 248.125 366.233 257.562 365.011 266.785C363.79 275.947 361.53 284.254 358.232 291.705C354.994 299.096 350.291 305.021 344.122 309.479C338.014 313.877 330.074 316.168 320.301 316.351C315.109 316.534 310.07 315.923 305.184 314.518C300.298 313.114 296.144 310.854 292.724 307.739C289.303 304.562 287.227 300.531 286.494 295.645H285.394C283.928 299.249 281.485 302.608 278.065 305.723C274.644 308.777 270.277 311.22 264.963 313.053C259.71 314.824 253.602 315.557 246.639 315.251C238.943 314.946 232.011 313.205 225.842 310.029C219.673 306.853 214.389 302.455 209.991 296.836C205.655 291.217 202.326 284.559 200.005 276.863C197.684 269.167 196.523 260.616 196.523 251.21C196.523 242.17 197.837 234.077 200.463 226.93C203.089 219.723 206.663 213.523 211.183 208.332C215.763 203.079 221.016 198.925 226.941 195.871C232.866 192.817 239.126 190.893 245.723 190.099C252.136 189.366 258.031 189.55 263.406 190.649C268.781 191.749 273.239 193.428 276.782 195.688C280.386 197.948 282.646 200.422 283.562 203.109H284.753V192.848H307.291V277.871C307.291 282.696 308.543 286.788 311.048 290.148C313.613 293.507 317.247 295.187 321.95 295.187C327.509 295.187 331.845 293.141 334.96 289.048C338.136 284.956 340.366 278.665 341.648 270.175C342.992 261.685 343.664 250.812 343.664 237.558C343.664 228.274 342.412 219.54 339.908 211.355C337.464 203.109 333.83 195.658 329.005 189C324.241 182.281 318.377 176.509 311.414 171.684C304.451 166.859 296.511 163.133 287.593 160.506C278.737 157.88 268.933 156.567 258.183 156.567C243.585 156.567 230.606 158.827 219.245 163.347C207.884 167.805 198.295 174.249 190.477 182.678C182.719 191.107 176.825 201.216 172.794 213.004C168.824 224.732 166.839 237.894 166.839 252.492C166.839 267.701 168.885 281.2 172.977 292.988C177.07 304.715 183.116 314.61 191.118 322.673C199.119 330.735 209.014 336.843 220.803 340.996C232.591 345.211 246.181 347.318 261.573 347.318C268.414 347.318 275.133 346.707 281.729 345.486C288.326 344.325 294.19 342.982 299.32 341.455C304.512 339.989 308.391 338.798 310.956 337.881L317.369 357.946C313.582 359.717 308.543 361.458 302.252 363.168C296.022 364.879 289.242 366.283 281.913 367.383C274.644 368.482 267.467 369.032 260.382 369.032ZM251.953 292.805C259.893 292.805 266.276 291.217 271.102 288.04C275.988 284.864 279.5 280.131 281.638 273.839C283.837 267.487 284.936 259.547 284.936 250.018C284.875 240.734 283.684 233.344 281.363 227.847C279.103 222.288 275.56 218.318 270.735 215.936C265.971 213.493 259.832 212.271 252.32 212.271C245.418 212.271 239.523 213.951 234.637 217.31C229.812 220.67 226.116 225.22 223.551 230.962C221.047 236.703 219.764 243.086 219.703 250.11C219.764 257.501 220.803 264.464 222.818 270.999C224.895 277.474 228.254 282.727 232.896 286.758C237.599 290.789 243.952 292.805 251.953 292.805Z" fill="#EA5252"/>
</svg>
